<?xml version="1.0" encoding="UTF-8"?>
<!DOCTYPE svg PUBLIC "-//W3C//DTD SVG 1.1//EN" "http://www.w3.org/Graphics/SVG/1.1/DTD/svg11.dtd">
<!-- Creator: CorelDRAW X7 -->
<svg xmlns="http://www.w3.org/2000/svg" xml:space="preserve" width="33.8666mm" height="33.8666mm" version="1.1" style="shape-rendering:geometricPrecision; text-rendering:geometricPrecision; image-rendering:optimizeQuality; fill-rule:evenodd; clip-rule:evenodd"
viewBox="0 0 33867 33867"
 xmlns:xlink="http://www.w3.org/1999/xlink">
 <defs>
  <style type="text/css">
   <![CDATA[
    .str0 {stroke:#2B2A29;stroke-width:200}
    .fil0 {fill:#ffffff}
   ]]>
  </style>
 </defs>
 <g id="Warstwa_x0020_1">
  <metadata id="CorelCorpID_0Corel-Layer"/>
  <path class="fil0 str0" d="M12878 31536c126,-395 70,-923 65,-1451 -7,-858 -7,-1718 -20,-2575 -7494,1104 -6067,-3276 -8656,-5068 -494,-342 -964,-454 -1019,-1073 711,-672 2085,-31 2662,375 1558,1096 1596,2874 3872,3431 1015,248 2303,5 3136,-392 230,-212 136,-1260 1004,-2310 217,-263 98,-11 270,-382 -1857,-154 -3702,-685 -5078,-1467 -4202,-2388 -5043,-9140 -2654,-12631 264,-386 474,-597 753,-923 -243,-1039 -451,-1519 -374,-2757 50,-802 243,-1889 621,-2512 1657,-187 3719,951 4824,1635 987,611 425,335 2511,-8 2434,-401 5077,-327 7472,261 790,194 554,186 1174,-214 1062,-686 3226,-1861 4879,-1673 377,635 571,1699 622,2511 78,1237 -130,1717 -372,2757 264,310 458,504 714,867 700,991 1167,2345 1286,3618 177,1887 -139,4043 -830,5604 -1375,3106 -4023,4397 -8156,4927 156,309 600,667 899,1465 394,1049 428,2894 400,4615l-11 0 0 580c-17,779 -40,1509 -40,2099 0,183 14,343 40,482l0 759 -9994 -26 0 -524zm-7910 -9814c96,377 74,394 541,301 -41,-328 -223,-488 -541,-301zm919 649c-9,19 -243,142 18,419 218,231 244,114 443,65 4,-379 -112,-529 -461,-484zm738 1044c-126,424 41,616 521,610 59,-519 -70,-741 -521,-610zm1561 1743c62,-498 -140,-721 -637,-631 -94,489 157,665 637,631zm744 268c-61,115 -124,-177 -74,204 40,300 398,329 552,297 481,-98 144,-827 -478,-501zm3078 454c429,237 910,-4 774,-303 -107,-236 -838,-368 -774,303zm-1561 170c342,164 729,278 832,-228 -321,-328 -806,-390 -832,228z"/>
 </g>
</svg>
