<?xml version="1.0" encoding="UTF-8"?>
<!DOCTYPE svg PUBLIC "-//W3C//DTD SVG 1.1//EN" "http://www.w3.org/Graphics/SVG/1.1/DTD/svg11.dtd">
<!-- Creator: CorelDRAW X7 -->
<svg xmlns="http://www.w3.org/2000/svg" xml:space="preserve" width="33.8666mm" height="33.8666mm" version="1.1" style="shape-rendering:geometricPrecision; text-rendering:geometricPrecision; image-rendering:optimizeQuality; fill-rule:evenodd; clip-rule:evenodd"
viewBox="0 0 33867 33867"
 xmlns:xlink="http://www.w3.org/1999/xlink">
 <defs>
  <style type="text/css">
   <![CDATA[
    .fil0 {fill:#ffffff}
   ]]>
  </style>
 </defs>
 <g id="Warstwa_x0020_1">
  <metadata id="CorelCorpID_0Corel-Layer"/>
  <g id="_1050672288">
   <path class="fil0" d="M18857 30653c61,-421 15,-8090 15,-8740 0,-1534 -164,-2693 542,-3836 1274,-2064 4413,-2263 5502,-5 534,1107 479,2528 479,3888 0,604 -49,8322 18,8702l6160 0c73,-359 23,-8118 23,-8702 0,-2823 39,-5307 -1312,-7365 -625,-953 -1211,-1577 -2217,-2144 -2166,-1221 -5591,-1253 -7637,428 -246,202 -366,351 -564,528 -262,233 -544,577 -740,873l-254 306 -10 -2576 -6177 -1 13 9335c0,1099 -96,8963 -3,9318l6162 -9z"/>
   <polygon class="fil0" points="3045,30659 9236,30660 9237,12017 3042,12028 "/>
   <path class="fil0" d="M2690 6597c492,4184 7356,3682 6932,-710 -174,-1804 -1704,-3011 -3815,-2847 -1825,141 -3357,1524 -3117,3557z"/>
  </g>
 </g>
</svg>
