<?xml version="1.0" encoding="UTF-8"?>
<!DOCTYPE svg PUBLIC "-//W3C//DTD SVG 1.1//EN" "http://www.w3.org/Graphics/SVG/1.1/DTD/svg11.dtd">
<!-- Creator: CorelDRAW X7 -->
<svg xmlns="http://www.w3.org/2000/svg" xml:space="preserve" width="33.8666mm" height="33.8666mm" version="1.1" style="shape-rendering:geometricPrecision; text-rendering:geometricPrecision; image-rendering:optimizeQuality; fill-rule:evenodd; clip-rule:evenodd"
viewBox="0 0 33867 33867"
 xmlns:xlink="http://www.w3.org/1999/xlink">
 <defs>
  <style type="text/css">
   <![CDATA[
    .fil0 {fill:#ffffff}
   ]]>
  </style>
 </defs>
 <g id="Warstwa_x0020_1">
  <metadata id="CorelCorpID_0Corel-Layer"/>
  <g id="_1028643824">
   <path class="fil0" d="M11689 15972c-313,293 -1854,2427 -2251,2957 -586,783 -6327,8371 -6558,8801l27831 -1 -4396 -5919c-735,-989 -1456,-1931 -2193,-2917l-2214 -2920c-379,228 -1464,1289 -1956,1667 -873,669 -2268,2047 -3154,2717l-3198 -2744c-639,-527 -1266,-1211 -1911,-1641z"/>
   <path class="fil0" d="M16798 18724l6515 -5639c337,-305 612,-566 954,-844l3726 -3255c803,-767 2337,-2000 3237,-2809l481 -490 -29830 -9c123,219 4207,3775 4638,4119 1603,1278 3935,3517 5569,4866l1895 1633c324,259 595,529 913,812l1902 1616z"/>
   <path class="fil0" d="M1691 26577l7 1015c326,-305 6358,-8445 6919,-9196 277,-370 2131,-2785 2289,-3117l-6874 -6018c-376,-310 -2060,-1890 -2314,-1958l-27 19274z"/>
   <path class="fil0" d="M22685 15279c196,430 7128,9578 7961,10692 318,425 812,1182 1202,1548l2 -20227c-305,165 -1907,1668 -2290,1965 -1269,989 -3310,2992 -4578,3987 -403,316 -755,676 -1154,1006 -212,175 -368,330 -577,501 -158,130 -454,401 -566,528z"/>
  </g>
 </g>
</svg>
