<?xml version="1.0" encoding="UTF-8"?>
<!DOCTYPE svg PUBLIC "-//W3C//DTD SVG 1.1//EN" "http://www.w3.org/Graphics/SVG/1.1/DTD/svg11.dtd">
<!-- Creator: CorelDRAW X7 -->
<svg xmlns="http://www.w3.org/2000/svg" xml:space="preserve" width="33.8666mm" height="33.8666mm" version="1.1" style="shape-rendering:geometricPrecision; text-rendering:geometricPrecision; image-rendering:optimizeQuality; fill-rule:evenodd; clip-rule:evenodd"
viewBox="0 0 33867 33867"
 xmlns:xlink="http://www.w3.org/1999/xlink">
 <defs>
  <style type="text/css">
   <![CDATA[
    .fil0 {fill:#ffffff}
   ]]>
  </style>
 </defs>
 <g id="Warstwa_x0020_1">
  <metadata id="CorelCorpID_0Corel-Layer"/>
  <path class="fil0" d="M31376 29770c807,-810 1680,-1393 1721,-2623 -661,-4243 -6879,-6735 -9281,-5097 -842,502 -2077,2117 -2548,3092 -6204,-2127 -8506,-6224 -10764,-11913 615,-302 1323,-1047 1752,-1618 1735,-3147 -379,-9242 -3588,-9868l-552 -118c-51,-7 -89,-17 -140,-21 -616,-59 -1516,140 -2006,529l-1158 1233c-7720,7724 7766,25704 16368,28018 4629,1245 7028,1568 10196,-1614z"/>
 </g>
</svg>
