<?xml version="1.0" encoding="utf-8"?>
<!-- Generator: Adobe Illustrator 15.0.2, SVG Export Plug-In  -->
<!DOCTYPE svg PUBLIC "-//W3C//DTD SVG 1.1//EN" "http://www.w3.org/Graphics/SVG/1.1/DTD/svg11.dtd" [
	<!ENTITY ns_flows "http://ns.adobe.com/Flows/1.0/">
]>
<svg version="1.1"
	 xmlns="http://www.w3.org/2000/svg" xmlns:xlink="http://www.w3.org/1999/xlink" xmlns:a="http://ns.adobe.com/AdobeSVGViewerExtensions/3.0/"
	 x="0px" y="0px" width="592px" height="592px" viewBox="-0.453 -0.58 592 592" enable-background="new -0.453 -0.58 592 592"
	 xml:space="preserve">
<defs>
</defs>

<path fill="#FFFFFF" d="M543.145,242.916c-5.639-29.7-16.356-57.787-31.854-83.481c-14.972-24.82-33.996-46.767-56.543-65.228
	C409.376,57.058,352.333,36.6,294.122,36.6c-15.809,0-31.761,1.506-47.414,4.478C109.354,67.154,18.826,200.132,44.907,337.505
	c5.639,29.703,16.359,57.793,31.862,83.489c14.973,24.82,34,46.766,56.551,65.228c45.371,37.144,102.407,57.602,160.603,57.604
	c0.003,0,0.005,0,0.009,0c15.793,0,31.732-1.506,47.373-4.476C478.68,513.27,569.225,380.291,543.145,242.916z M505.303,370.389
	l-26.968,5.12c5.844-31.518,6.68-65.101,2.346-99.092l38.37-7.284C522.342,303.759,517.603,338.245,505.303,370.389z
	 M77.259,226.308l30.066-5.708c-4.069,31.025-3.565,64.24,2.238,98.164l-38.634,7.334C65.476,292.319,67.734,258.375,77.259,226.308
	z M449.174,381.045l-51.762,9.827c-0.282-30.45-3.155-63.645-8.472-97.038l64.599-12.264
	C457.765,316.021,456.239,349.89,449.174,381.045z M183.068,431.565c-17.673-26.002-31.759-56.911-40.601-90.938l64.593-12.264
	c7.276,32.909,16.791,64.926,27.682,93.392L183.068,431.565z M356.944,271.799l-128.19,24.336
	c-6.083-33.629-9.585-66.432-10.416-96.611l112.873-21.429C341.515,206.524,350.294,238.37,356.944,271.799z M234.186,323.213
	l127.629-24.229c5.455,34.153,8.189,67.167,8.101,97.108l-107.672,20.44C251.185,388.674,241.616,356.913,234.186,323.213z
	 M384.076,266.648c-6.489-32.57-15.273-64.662-25.53-93.742l55.093-10.459c15.952,26.823,28.243,58,35.372,91.873L384.076,266.648z
	 M190.994,204.715c1.112,30.745,4.698,63.74,10.629,96.571l-64.938,12.329c-5.824-34.325-5.818-67.778-0.857-98.426L190.994,204.715
	z M348.555,146.691c-4.708-11.438-9.631-22.202-14.713-32.076c-9.08-17.645-18.477-32.253-28.047-43.724
	c33.779,9.532,65.506,33.27,91.017,66.639L348.555,146.691z M245.54,447.779c2.828,6.278,5.717,12.309,8.662,18.032
	c9.086,17.667,18.49,32.29,28.068,43.767c-29.168-8.229-56.808-27.058-80.238-53.54L245.54,447.779z M254.364,67.999
	c14.561,0,34.446,20.964,53.193,56.078c4.613,8.642,9.067,17.967,13.329,27.868l-102.521,19.464
	c0.389-12.354,1.287-24.105,2.714-35.088c5.115-39.366,16.911-65.457,30.785-68.091C252.669,68.077,253.51,67.999,254.364,67.999z
	 M193.306,135.126c-1.531,12.865-2.395,26.82-2.621,41.536l-48.366,9.183c11.545-40.58,32.497-74.207,60.331-95.373
	C198.481,103.099,195.343,118.008,193.306,135.126z M394.738,445.305c0.992-8.325,1.703-17.113,2.146-26.26l43.549-8.268
	c-2.007,5.475-4.194,10.836-6.585,16.055c-12.32,26.892-28.881,48.295-48.492,63.198
	C389.542,477.39,392.692,462.457,394.738,445.305z M476.115,249.175c-6.885-32.937-18.466-64.215-33.904-92.153l30.052-5.705
	c20.307,26.008,35.117,56.709,42.52,90.517L476.115,249.175z M115.311,345.782c8.412,33.015,21.564,64.05,38.579,91.322
	l-27.007,5.127c-22.793-25.04-40.126-55.339-49.908-89.171L115.311,345.782z M171.236,461.885
	c5.002,6.376,10.236,12.474,15.701,18.241c6.309,6.659,12.845,12.805,19.559,18.443c-19.844-8.361-38.31-19.495-54.881-32.96
	L171.236,461.885z M333.667,512.465c-14.544,0-34.417-20.975-53.164-56.108c-2.375-4.451-4.705-9.093-6.991-13.89l95.409-18.113
	c-0.478,6.815-1.121,13.414-1.945,19.753c-5.122,39.387-16.932,65.492-30.82,68.129
	C335.355,512.388,334.517,512.465,333.667,512.465z M426.636,131.868c-7.833-11.321-16.36-21.896-25.521-31.566
	c-6.295-6.645-12.816-12.778-19.515-18.406c25.68,10.82,49.055,26.277,68.992,45.424L426.636,131.868z M112.624,191.483
	l-23.937,4.544c5.247-11.354,11.461-22.363,18.646-32.916c8.58-12.601,18.265-24.164,28.897-34.596
	C125.973,147.442,117.993,168.66,112.624,191.483z M457.381,441.092c5.476-11.52,10.096-23.616,13.859-36.163l19.514-3.705
	c-3.104,5.472-6.432,10.85-10.013,16.108c-8.565,12.577-18.23,24.123-28.842,34.541C453.796,448.365,455.63,444.777,457.381,441.092
	z"/>
</svg>
