<?xml version="1.0" encoding="UTF-8"?>
<!DOCTYPE svg PUBLIC "-//W3C//DTD SVG 1.1//EN" "http://www.w3.org/Graphics/SVG/1.1/DTD/svg11.dtd">
<!-- Creator: CorelDRAW X7 -->
<svg xmlns="http://www.w3.org/2000/svg" xml:space="preserve" width="20.9124mm" height="9.1422mm" version="1.1" style="shape-rendering:geometricPrecision; text-rendering:geometricPrecision; image-rendering:optimizeQuality; fill-rule:evenodd; clip-rule:evenodd"
viewBox="0 0 2091 914"
 xmlns:xlink="http://www.w3.org/1999/xlink">
 <defs>
  <style type="text/css">
   <![CDATA[
    .fil0 {fill:white}
   ]]>
  </style>
 </defs>
 <g id="Warstwa_x0020_1">
  <metadata id="CorelCorpID_0Corel-Layer"/>
  <path class="fil0" d="M446 19c1,0 2,1 2,4 -1,3 -2,7 -3,12 -5,16 -10,33 -16,51 -6,18 -12,38 -18,57 -7,20 -13,41 -20,62 -7,21 -13,42 -20,62 -10,30 -19,58 -28,86 -9,28 -17,54 -24,77 -8,24 -14,44 -20,61 -5,18 -9,31 -12,39 -2,10 -4,18 -4,24 -1,6 0,12 2,16 1,3 3,6 6,8 3,3 6,4 10,6 4,1 9,3 13,3 5,1 9,2 12,2 4,0 7,1 8,2 2,1 3,2 2,4 -1,3 -3,5 -8,6 -5,1 -9,1 -14,1 -7,0 -16,0 -28,-1 -12,-1 -26,-2 -42,-2 -7,0 -15,0 -23,1 -8,1 -16,2 -25,3 -9,1 -19,2 -29,2 -11,1 -22,2 -35,2 -18,0 -35,-3 -50,-7 -14,-4 -26,-12 -35,-21 -9,-10 -15,-22 -17,-37 -3,-16 0,-34 6,-56 6,-19 14,-36 26,-51 11,-15 25,-28 40,-38 15,-11 31,-19 49,-24 18,-5 36,-8 54,-8 18,0 34,1 45,4 12,3 21,6 28,9 6,-19 12,-39 17,-59 6,-20 11,-40 17,-59 5,-19 10,-37 14,-54 5,-17 9,-32 12,-45 3,-13 6,-23 8,-31 2,-8 3,-13 4,-14 0,-3 1,-6 2,-9 0,-3 0,-6 0,-8 0,-2 0,-4 -1,-6 -1,-1 -3,-2 -5,-2 -3,0 -7,1 -11,2 -4,2 -9,3 -13,5 -5,1 -9,3 -13,4 -4,1 -8,2 -11,2 -2,0 -3,0 -5,-1 -1,-1 -2,-2 -1,-5 1,-2 2,-4 5,-6 2,-2 5,-3 10,-5 3,-1 6,-2 10,-3 3,-1 8,-3 14,-5 5,-2 12,-5 20,-8 8,-4 17,-8 29,-14 10,-5 20,-10 28,-15 7,-5 14,-9 19,-12 5,-4 9,-6 12,-8 3,-2 5,-3 7,-3zm-208 502c3,-9 6,-19 9,-29 3,-11 6,-21 9,-32 3,-11 6,-22 9,-32 3,-11 5,-21 8,-31 -5,-3 -12,-6 -20,-8 -9,-2 -19,-3 -30,-3 -13,0 -26,2 -38,7 -11,5 -22,11 -32,20 -9,8 -18,18 -25,30 -7,12 -13,26 -17,40 -5,16 -8,31 -8,43 -1,13 1,24 5,33 4,9 11,16 20,21 9,5 20,8 34,8 11,0 22,-2 30,-6 9,-4 16,-8 22,-14 6,-6 10,-12 14,-20 4,-8 7,-17 10,-27zm256 -105c-7,0 -14,-2 -20,-4 -5,-3 -10,-8 -13,-13 -3,-6 -5,-13 -5,-21 -1,-9 1,-19 5,-31 3,-12 9,-24 16,-36 7,-12 16,-23 26,-33 10,-9 22,-16 35,-22 14,-6 29,-9 45,-9 13,0 25,2 34,6 10,3 17,8 24,14 6,6 10,13 13,21 4,8 6,16 7,24 2,9 2,18 2,27 0,8 0,17 -1,25 0,4 -1,10 -2,19 -1,8 -2,17 -3,28 -2,11 -3,22 -5,34 -1,13 -3,25 -5,38 -2,12 -3,24 -5,36 -1,12 -3,23 -4,33 -2,9 -3,18 -4,25 -1,7 -1,12 -1,14 -1,7 -2,13 -2,19 0,7 0,13 0,18 1,5 3,10 5,13 3,4 6,5 12,5 3,0 5,0 8,-2 3,-1 5,-3 7,-5 2,-3 4,-6 6,-9 1,-3 2,-6 3,-9 1,-4 2,-8 3,-12 1,-4 2,-7 3,-10 1,-3 2,-6 4,-8 1,-2 3,-3 6,-3 2,0 3,1 4,4 0,2 0,5 0,8 0,4 -1,7 -1,10 -1,4 -2,6 -2,8 -2,7 -5,15 -9,24 -4,9 -9,17 -16,26 -6,8 -14,15 -24,21 -10,5 -21,8 -32,8 -10,0 -18,-2 -24,-4 -6,-3 -11,-7 -14,-11 -4,-4 -7,-9 -9,-14 -2,-5 -3,-9 -4,-13 -2,-11 -3,-23 -2,-36 1,-13 2,-26 4,-38 -4,5 -11,12 -19,19 -9,7 -19,15 -30,22 -11,6 -23,12 -36,17 -14,5 -28,7 -42,7 -17,0 -30,-2 -40,-6 -10,-5 -17,-11 -22,-19 -5,-8 -8,-17 -8,-27 -1,-11 1,-22 5,-33 3,-13 9,-26 18,-38 8,-13 19,-25 33,-35 14,-10 30,-19 49,-25 19,-7 41,-10 66,-10 5,0 11,0 16,1 5,0 10,1 14,2 4,0 8,1 11,1 3,1 5,1 6,2 4,-18 8,-35 11,-53 2,-7 3,-15 5,-23 1,-8 3,-16 4,-24 1,-8 3,-16 4,-24 1,-8 2,-15 2,-22 2,-16 -1,-28 -7,-38 -7,-9 -18,-13 -32,-13 -8,0 -15,1 -22,4 -7,3 -13,6 -19,11 -5,4 -10,9 -13,15 -4,5 -7,11 -8,16 -2,6 -2,11 -1,15 2,4 5,7 8,11 3,3 7,6 11,8 4,3 7,6 10,10 4,3 6,7 7,12 2,5 1,12 -1,19 -3,10 -9,18 -17,24 -9,6 -18,9 -28,9zm83 61c-1,0 -3,-1 -7,-2 -3,-1 -7,-2 -12,-3 -4,-1 -9,-1 -14,-2 -6,-1 -11,-1 -17,-1 -10,0 -21,2 -31,5 -10,3 -19,7 -28,13 -8,6 -16,14 -22,23 -7,9 -12,19 -15,31 -4,11 -4,19 -3,26 2,7 4,13 9,17 4,4 9,7 16,8 6,2 12,3 19,3 10,0 20,-2 31,-5 10,-3 19,-7 28,-11 8,-4 15,-9 21,-13 5,-4 9,-7 10,-8 3,-13 5,-26 8,-37 0,-5 1,-10 2,-14 1,-5 2,-9 2,-13 1,-4 2,-8 2,-11 1,-2 1,-4 1,-6zm340 -230c-1,3 -2,6 -3,11 -2,4 -3,8 -5,13 -1,6 -3,12 -4,19 -1,6 -2,12 -3,18 0,6 -1,10 -1,14 0,4 1,5 2,5 0,0 2,-2 6,-8 3,-6 7,-14 13,-22 6,-9 12,-19 20,-29 8,-10 17,-20 26,-29 10,-9 21,-16 33,-22 12,-6 25,-9 39,-9 13,0 23,2 31,7 7,4 13,10 16,17 3,6 5,14 5,21 0,8 -1,15 -3,22 -4,11 -8,20 -13,28 -5,8 -11,15 -17,20 -7,6 -13,9 -20,12 -7,3 -14,4 -20,4 -12,0 -20,-2 -26,-8 -5,-5 -7,-13 -4,-24 2,-6 4,-10 7,-14 3,-4 6,-8 9,-11 4,-3 7,-5 11,-7 5,-2 9,-3 14,-5 9,-2 16,-5 20,-9 4,-4 7,-8 9,-14 1,-3 1,-6 1,-8 0,-3 -1,-6 -3,-8 -2,-2 -5,-4 -8,-6 -4,-1 -9,-2 -14,-2 -12,0 -23,3 -33,8 -10,6 -20,13 -29,22 -9,9 -18,19 -25,31 -8,12 -15,24 -22,37 -6,12 -12,25 -17,38 -5,14 -9,26 -13,37 -3,10 -6,22 -8,34 -3,12 -6,24 -8,36 -2,12 -4,24 -6,35 -2,12 -4,22 -5,32 -1,9 -2,18 -3,25 -1,6 -2,11 -2,14 0,9 1,15 5,19 4,3 10,5 17,5 4,0 8,0 11,0 4,0 7,-1 9,-1 5,0 7,3 6,7 -1,3 -3,5 -6,6 -3,1 -8,2 -14,2 -6,0 -13,0 -22,0 -8,1 -17,1 -26,1 -10,1 -19,1 -29,2 -10,2 -20,3 -30,5 -10,2 -19,4 -27,6 -9,2 -16,4 -23,5 -6,2 -11,3 -15,3 -4,0 -6,-1 -7,-3 -1,-1 -1,-3 -1,-5 1,-3 3,-5 6,-7 3,-1 7,-2 12,-4 3,-1 8,-2 13,-3 5,-1 11,-3 18,-6 8,-3 13,-6 17,-11 4,-5 8,-12 11,-22 1,-3 2,-8 4,-15 1,-7 3,-16 6,-26 2,-10 4,-21 7,-32 2,-12 5,-24 8,-37 3,-12 5,-25 8,-37 2,-12 5,-24 7,-35 2,-11 4,-20 6,-29 1,-8 3,-15 4,-20 1,-6 1,-11 0,-14 0,-4 -1,-7 -3,-9 -2,-1 -4,-2 -7,-3 -3,0 -6,-1 -9,-1l-13 0c-1,0 -2,0 -3,0 -2,0 -3,0 -4,-1 -2,0 -3,-1 -3,-2 -1,-1 -1,-2 -1,-4 1,-2 3,-4 5,-5 2,-1 4,-2 7,-2 11,-1 20,-3 29,-5 9,-2 18,-6 28,-12 6,-4 12,-9 20,-16 7,-6 13,-13 19,-20 4,-5 7,-7 10,-7 3,0 4,1 4,3 0,2 0,4 -1,5zm249 80c12,0 22,1 30,3 9,2 16,5 22,8 5,3 10,6 13,9 4,3 6,5 8,7 1,-3 3,-6 4,-9 1,-4 2,-7 3,-10 2,-3 3,-6 4,-9 2,-3 3,-5 5,-6 2,-1 4,-2 6,-2 3,-1 5,-1 8,-1 4,0 8,0 12,1 5,0 10,0 16,0 11,0 22,0 32,-2 9,-1 16,-2 21,-2 5,0 7,2 6,4 -1,2 -4,4 -11,6 -6,2 -14,4 -22,6 -5,1 -9,3 -13,6 -4,2 -7,5 -10,9 -3,4 -5,8 -7,14 -2,5 -5,11 -7,17 0,1 -2,5 -4,12 -2,7 -4,16 -8,27 -3,12 -7,25 -12,39 -4,15 -9,31 -14,48 -5,17 -10,34 -16,53 -6,18 -11,37 -17,56 -5,19 -11,37 -16,55 -6,18 -11,35 -16,52 -4,13 -7,26 -11,38 -3,11 -7,22 -9,31 -3,9 -5,17 -7,24 -2,6 -3,11 -4,14 -2,7 -3,14 -3,21 0,6 3,12 8,17 5,5 11,9 17,12 6,2 11,5 15,6 3,1 4,2 5,3 1,1 2,3 1,5 0,2 -2,3 -3,5 -2,1 -4,2 -6,2 -7,0 -14,-2 -22,-4 -8,-3 -16,-6 -25,-9 -8,-4 -17,-7 -25,-10 -8,-4 -16,-6 -23,-8 -5,-1 -11,-2 -18,-3 -6,-1 -13,-2 -20,-3 -7,-1 -13,-2 -20,-2 -6,0 -11,-1 -16,-1 -8,0 -13,0 -15,-2 -1,-1 -2,-2 -2,-4 2,-5 7,-8 16,-8 3,0 6,0 9,0 4,0 8,0 12,0 4,0 8,0 12,1 4,0 7,0 9,0 6,0 10,-1 14,-3 4,-2 7,-5 10,-8 3,-4 5,-8 7,-12 2,-5 4,-10 6,-16 2,-5 5,-14 8,-25 4,-12 9,-26 14,-41 5,-15 10,-31 15,-49 6,-17 11,-35 17,-52 5,-17 10,-34 15,-49 5,-16 9,-30 13,-42 2,-8 5,-15 6,-21 2,-5 3,-9 3,-11 -6,4 -12,8 -20,11 -7,4 -15,6 -23,9 -8,2 -16,4 -25,6 -8,1 -16,1 -23,1 -6,0 -13,0 -20,-1 -7,-2 -14,-4 -20,-7 -7,-3 -13,-7 -19,-12 -5,-5 -10,-12 -13,-20 -3,-7 -4,-17 -4,-27 -1,-11 2,-24 6,-38 5,-17 12,-32 22,-45 9,-14 20,-25 33,-35 13,-9 26,-16 41,-21 15,-6 30,-8 45,-8zm20 25c-9,0 -18,1 -27,5 -9,3 -18,8 -26,14 -8,7 -15,15 -21,25 -6,10 -12,21 -16,35 -5,17 -7,31 -6,43 1,11 4,20 9,26 4,7 11,11 18,14 8,2 16,4 24,4 6,0 12,-1 18,-3 6,-2 12,-4 17,-8 5,-3 10,-8 14,-13 5,-5 8,-11 10,-17 1,-4 3,-9 5,-14 2,-5 4,-11 6,-17 2,-6 3,-12 5,-18 2,-6 4,-11 5,-16 2,-6 4,-11 5,-15 1,-4 2,-7 2,-9 1,-4 0,-9 -1,-13 -2,-4 -4,-8 -8,-11 -3,-4 -7,-7 -13,-9 -6,-2 -12,-3 -20,-3zm508 -24c3,0 5,1 6,1 0,1 1,2 0,4 -1,2 -5,6 -12,9 -9,5 -19,11 -29,18 -10,6 -20,15 -29,25 0,9 0,18 -1,28 -1,9 -3,19 -6,30 -3,12 -8,23 -13,34 -6,11 -12,22 -19,31 1,4 2,7 5,10 2,4 5,6 9,9 4,3 9,5 14,6 5,2 11,3 18,3 10,0 20,-3 30,-7 9,-4 18,-10 26,-17 9,-8 16,-17 23,-27 6,-10 11,-22 15,-34 5,-17 8,-35 8,-52 0,-16 -4,-30 -11,-41 0,-2 -1,-4 -3,-5 -1,-2 -2,-3 -3,-5 -1,-2 -2,-3 -2,-5 -1,-2 -1,-4 0,-5 1,-4 3,-6 5,-8 2,-2 5,-3 9,-3 4,0 10,1 16,1 6,1 13,1 21,1 15,0 29,-1 45,-4 15,-3 30,-7 45,-13 14,-5 28,-11 42,-18 13,-8 25,-15 36,-24 11,-8 21,-16 31,-25 9,-9 17,-18 25,-28 7,-9 13,-18 18,-26 5,-9 9,-17 11,-25 2,-6 2,-12 1,-17 -1,-4 -3,-8 -6,-12 -2,-3 -5,-7 -9,-10 -3,-3 -7,-6 -9,-10 -3,-3 -5,-7 -6,-12 -1,-4 -1,-10 1,-16 3,-10 9,-19 18,-26 8,-6 19,-9 31,-9 6,0 12,1 17,3 5,2 9,5 12,10 3,4 4,10 5,16 1,7 0,15 -3,25 -4,11 -9,24 -16,38 -8,15 -17,30 -28,45 -11,16 -24,31 -38,47 -14,15 -30,29 -47,42 -19,14 -37,25 -55,33 -18,8 -34,15 -50,19 -15,5 -28,9 -40,10 -11,2 -20,3 -25,3 1,1 4,4 7,8 4,5 8,11 11,19 4,8 6,17 7,28 1,11 0,24 -5,38 -5,18 -13,35 -24,49 -11,14 -24,26 -39,36 -14,10 -30,17 -47,22 -16,5 -33,8 -51,8 -13,0 -25,-2 -37,-5 -11,-3 -21,-7 -30,-13 -17,18 -37,32 -59,42 -22,11 -45,16 -70,16 -16,0 -32,-2 -46,-7 -15,-5 -27,-13 -37,-24 -9,-11 -15,-24 -18,-41 -3,-17 -1,-38 7,-62 7,-25 18,-48 31,-68 14,-19 30,-36 47,-49 17,-13 36,-23 56,-30 20,-7 39,-10 59,-10 11,0 20,1 30,4 9,2 17,6 24,10 7,5 13,10 19,16 5,7 9,14 12,22 7,-5 14,-8 21,-12 7,-3 14,-5 20,-8 6,-2 12,-3 17,-4 5,-1 9,-2 12,-2zm-153 -14c-13,0 -25,4 -38,10 -13,6 -26,16 -38,28 -12,13 -23,29 -33,48 -10,19 -19,41 -27,67 -5,16 -7,30 -8,43 -1,13 1,24 4,33 4,9 9,16 17,20 7,5 16,8 27,8 10,0 20,-2 30,-7 9,-4 18,-9 27,-16 8,-7 16,-15 23,-24 7,-9 13,-18 18,-28 -1,-7 -1,-15 -1,-23 0,-9 2,-18 5,-27 3,-13 9,-25 16,-36 7,-11 15,-21 24,-29 3,-22 0,-39 -8,-50 -8,-11 -21,-17 -38,-17z"/>
  <path class="fil0" d="M21 835c6,0 13,1 22,1 18,0 33,-5 42,-14 9,-9 14,-21 14,-37 0,-15 -5,-26 -14,-34 -8,-8 -21,-12 -38,-12 -10,0 -19,1 -26,2l0 94zm12 -85c3,-1 8,-1 14,-1 26,0 39,14 39,37 0,25 -15,40 -41,40 -5,0 -9,0 -12,-1l0 -75zm197 55l10 30 14 0 -33 -95 -15 0 -32 95 13 0 10 -30 33 0zm-31 -10l9 -27c2,-6 4,-12 5,-17l1 0c1,5 2,11 4,17l10 27 -29 0zm137 40l13 0 0 -41 11 0c11,0 16,5 19,18 3,12 5,20 6,23l13 0c-2,-4 -4,-13 -7,-26 -2,-10 -7,-17 -14,-19l0 -1c10,-3 18,-11 18,-24 0,-7 -3,-14 -8,-18 -6,-5 -14,-8 -27,-8 -9,0 -18,1 -24,2l0 94zm13 -85c1,-1 6,-1 12,-1 13,0 22,5 22,17 0,11 -9,18 -22,18l-12 0 0 -34zm132 -10l0 95 12 0 0 -95 -12 0zm102 0l0 56c0,29 15,40 34,40 21,0 36,-12 36,-41l0 -55 -12 0 0 56c0,21 -9,30 -23,30 -13,0 -22,-9 -22,-30l0 -56 -13 0zm155 90c6,4 16,6 25,6 22,0 33,-12 33,-27 0,-14 -8,-22 -24,-28 -13,-5 -19,-9 -19,-18 0,-7 5,-15 18,-15 8,0 15,3 18,5l3 -10c-4,-2 -11,-5 -21,-5 -18,0 -31,11 -31,26 0,14 10,22 26,27 12,5 17,10 17,19 0,10 -7,16 -19,16 -9,0 -17,-3 -22,-6l-4 10zm137 5l69 0 0 -10 -53 0 0 -1 53 -77 0 -7 -64 0 0 10 48 0 0 1 -53 77 0 7z"/>
  <path class="fil0" d="M1281 830c5,4 15,6 24,6 23,0 34,-12 34,-27 0,-14 -8,-22 -25,-28 -13,-5 -18,-9 -18,-18 0,-7 4,-15 17,-15 9,0 15,3 19,5l3 -10c-4,-2 -11,-5 -21,-5 -19,0 -31,11 -31,26 0,14 10,22 25,27 13,5 18,10 18,19 0,10 -7,16 -20,16 -8,0 -16,-3 -22,-6l-3 10zm209 5l12 0 -6 -95 -15 0 -17 46c-5,12 -8,22 -10,32l-1 0c-2,-10 -5,-20 -9,-32l-17 -46 -15 0 -7 95 12 0 2 -41c1,-14 2,-30 2,-42l0 0c3,11 7,24 11,37l16 45 9 0 17 -46c5,-13 9,-25 12,-36l0 0c0,12 1,28 2,41l2 42zm122 -97c-26,0 -45,20 -45,50 0,29 18,48 43,48 24,0 44,-17 44,-50 0,-28 -16,-48 -42,-48zm-1 10c20,0 30,20 30,39 0,22 -11,39 -30,39 -19,0 -30,-18 -30,-38 0,-21 10,-40 30,-40zm111 87l53 0 0 -10 -40 0 0 -85 -13 0 0 95zm159 -95l-15 0 -32 95 12 0 10 -30 34 0 10 29c-3,4 -8,11 -8,18 0,8 5,12 13,12 3,0 8,-1 11,-3l-2 -7c-1,1 -4,2 -6,2 -4,0 -7,-3 -7,-8 0,-5 5,-11 8,-13l4 0 -32 -95zm-22 55l9 -27c2,-6 4,-12 5,-17l0 0c2,5 3,11 5,17l10 27 -29 0zm191 -10l-32 0 0 10 20 0 0 28c-3,2 -9,3 -17,3 -22,0 -36,-14 -36,-39 0,-23 15,-38 38,-38 9,0 16,2 21,4l3 -10c-4,-2 -13,-4 -24,-4 -32,0 -51,21 -51,49 0,15 5,27 13,35 9,9 21,13 35,13 13,0 24,-3 30,-5l0 -46z"/>
 </g>
</svg>
